<svg width="225" height="225" viewBox="0 0 225 225" fill="none" xmlns="http://www.w3.org/2000/svg">
<path d="M153.149 9.37598C153.149 9.37598 137.813 9.74744 123.75 23.8099C109.688 37.8724 112.059 56.817 112.059 56.817C112.059 56.817 125.98 59.3624 140.837 44.5056C155.695 29.6489 153.149 9.37598 153.149 9.37598Z" fill="#090A0A"/>
<path d="M113.667 68.8089C103.302 68.738 96.9342 59.7877 79.2806 59.7877C63.3961 59.7877 47.4724 70.0362 40.7016 79.9528C33.9623 89.823 28.125 100.649 28.125 122.618C28.125 144.587 38.703 182.37 64.7142 207.948C69.1688 212.328 75.0655 215.621 81.7925 215.825C93.8916 216.191 101.321 207.134 116.604 207.134C131.887 207.134 136.486 215.825 150.283 215.825C156.557 215.825 163.712 212.967 170.66 205.578C179.575 196.097 190.638 178.04 196.273 160.719C196.273 160.719 168.054 149.821 168.396 118.408C168.679 92.3702 190.79 79.5635 190.79 79.5635C190.79 79.5635 177.877 58.9739 150.424 58.9739C131.462 59.1157 122.971 68.8726 113.667 68.8089Z" fill="#090A0A"/>
</svg>
