<svg width="196" height="196" viewBox="0 0 196 196" fill="none" xmlns="http://www.w3.org/2000/svg">
<g clip-path="url(#clip0_2002_389)">
<path d="M193.66 100.256C193.66 93.5938 193.12 86.896 191.968 80.3423H99.5312V118.08H152.465C150.269 130.252 143.211 141.018 132.876 147.86V172.347H164.457C183.001 155.278 193.66 130.071 193.66 100.256Z" fill="#4285F4"/>
<path d="M99.5314 196.007C125.962 196.007 148.252 187.329 164.493 172.349L132.912 147.862C124.126 153.84 112.783 157.225 99.5674 157.225C74.0006 157.225 52.3229 139.976 44.5448 116.786H11.9562V142.029C28.5926 175.121 62.4776 196.007 99.5314 196.007V196.007Z" fill="#34A853"/>
<path d="M44.5087 116.787C40.4036 104.615 40.4036 91.4359 44.5087 79.2647V54.022H11.956C-1.94367 81.7133 -1.94367 114.338 11.956 142.029L44.5087 116.787V116.787Z" fill="#FBBC04"/>
<path d="M99.5314 38.7889C113.503 38.5728 127.007 43.8302 137.125 53.4808L165.105 25.5014C147.388 8.86495 123.874 -0.281472 99.5314 0.0066041C62.4776 0.0066041 28.5926 20.8921 11.9562 54.0209L44.5088 79.2636C52.2509 56.0375 73.9646 38.7889 99.5314 38.7889V38.7889Z" fill="#EA4335"/>
</g>
<defs>
<clipPath id="clip0_2002_389">
<rect width="196" height="196" fill="white"/>
</clipPath>
</defs>
</svg>
