<svg width="196" height="194" viewBox="0 0 196 194" fill="none" xmlns="http://www.w3.org/2000/svg">
<path d="M0 97C0 150.572 43.8761 194 98 194C152.124 194 196 150.572 196 97C196 43.4284 152.124 0 98 0C43.8761 0 0 43.4284 0 97Z" fill="#1DA1F2"/>
<path d="M147 66.6875C143.325 68.5063 139.65 69.1125 135.363 69.7188C139.65 67.2937 142.712 63.6562 143.938 58.8062C140.262 61.2312 135.975 62.4437 131.075 63.6562C127.4 60.0187 121.887 57.5938 116.375 57.5938C103.513 57.5938 93.7125 69.7188 96.775 81.8438C80.2375 81.2375 65.5375 73.3563 55.125 61.2313C49.6125 70.325 52.675 81.8438 61.25 87.9062C58.1875 87.9062 55.125 86.6938 52.0625 85.4813C52.0625 94.575 58.8 103.062 67.9875 105.487C64.925 106.094 61.8625 106.7 58.8 106.094C61.25 113.975 68.6 120.037 77.7875 120.037C70.4375 125.494 59.4125 128.525 49 127.312C58.1875 132.769 68.6 136.406 79.625 136.406C116.987 136.406 137.812 105.487 136.587 76.9937C140.875 74.5687 144.55 70.9312 147 66.6875Z" fill="white"/>
</svg>
